<svg width="27" height="27" viewBox="0 0 27 27" fill="none" xmlns="http://www.w3.org/2000/svg">
<path d="M14.6564 2.25C15.922 2.25338 16.5644 2.26013 17.119 2.27588L17.3373 2.28375C17.5893 2.29275 17.8379 2.304 18.1383 2.3175C19.3353 2.37375 20.152 2.56275 20.8687 2.84063C21.6112 3.12638 22.2367 3.51337 22.8622 4.13775C23.4344 4.69995 23.8771 5.38028 24.1593 6.13125C24.4372 6.84787 24.6262 7.66462 24.6824 8.86275C24.6959 9.162 24.7072 9.41062 24.7162 9.66375L24.7229 9.882C24.7398 10.4355 24.7465 11.0779 24.7488 12.3435L24.7499 13.1828V14.6565C24.7526 15.4771 24.744 16.2977 24.724 17.118L24.7173 17.3363C24.7083 17.5894 24.697 17.838 24.6835 18.1372C24.6273 19.3354 24.436 20.151 24.1593 20.8687C23.8771 21.6197 23.4344 22.3001 22.8622 22.8623C22.3 23.4345 21.6196 23.8772 20.8687 24.1594C20.152 24.4373 19.3353 24.6263 18.1383 24.6825L17.3373 24.7162L17.119 24.723C16.5644 24.7388 15.922 24.7466 14.6564 24.7489L13.8172 24.75H12.3445C11.5236 24.7529 10.7026 24.7443 9.88191 24.7241L9.66366 24.7174C9.39659 24.7073 9.12959 24.6956 8.86266 24.6825C7.66566 24.6263 6.84891 24.4373 6.13116 24.1594C5.38059 23.8771 4.70066 23.4344 4.13878 22.8623C3.5661 22.3002 3.12303 21.6198 2.84053 20.8687C2.56266 20.1521 2.37366 19.3354 2.31741 18.1372L2.28366 17.3363L2.27803 17.118C2.25729 16.2977 2.24792 15.4771 2.24991 14.6565V12.3435C2.24679 11.5229 2.25504 10.7023 2.27466 9.882L2.28253 9.66375C2.29153 9.41062 2.30278 9.162 2.31628 8.86275C2.37253 7.66462 2.56153 6.849 2.83941 6.13125C3.12256 5.37997 3.56641 4.69962 4.13991 4.13775C4.70145 3.56574 5.38099 3.12308 6.13116 2.84063C6.84891 2.56275 7.66453 2.37375 8.86266 2.3175C9.16191 2.304 9.41166 2.29275 9.66366 2.28375L9.88191 2.277C10.7022 2.25701 11.5228 2.24839 12.3434 2.25112L14.6564 2.25ZM13.4999 7.875C12.0081 7.875 10.5773 8.46763 9.52243 9.52252C8.46754 10.5774 7.87491 12.0082 7.87491 13.5C7.87491 14.9918 8.46754 16.4226 9.52243 17.4775C10.5773 18.5324 12.0081 19.125 13.4999 19.125C14.9917 19.125 16.4225 18.5324 17.4774 17.4775C18.5323 16.4226 19.1249 14.9918 19.1249 13.5C19.1249 12.0082 18.5323 10.5774 17.4774 9.52252C16.4225 8.46763 14.9917 7.875 13.4999 7.875ZM13.4999 10.125C13.9431 10.1249 14.382 10.2122 14.7915 10.3817C15.201 10.5512 15.5731 10.7998 15.8866 11.1131C16.2 11.4265 16.4487 11.7985 16.6183 12.2079C16.788 12.6174 16.8754 13.0562 16.8755 13.4994C16.8755 13.9426 16.7883 14.3815 16.6188 14.791C16.4492 15.2005 16.2007 15.5726 15.8874 15.8861C15.574 16.1995 15.202 16.4482 14.7925 16.6179C14.3831 16.7876 13.9442 16.8749 13.501 16.875C12.6059 16.875 11.7475 16.5194 11.1145 15.8865C10.4816 15.2536 10.126 14.3951 10.126 13.5C10.126 12.6049 10.4816 11.7464 11.1145 11.1135C11.7475 10.4806 12.6059 10.125 13.501 10.125M19.4073 6.1875C19.0343 6.1875 18.6766 6.33566 18.4129 6.59938C18.1492 6.8631 18.001 7.22079 18.001 7.59375C18.001 7.96671 18.1492 8.3244 18.4129 8.58812C18.6766 8.85184 19.0343 9 19.4073 9C19.7802 9 20.1379 8.85184 20.4017 8.58812C20.6654 8.3244 20.8135 7.96671 20.8135 7.59375C20.8135 7.22079 20.6654 6.8631 20.4017 6.59938C20.1379 6.33566 19.7802 6.1875 19.4073 6.1875Z" fill="#10232C"/>
</svg>
